<svg width="474" height="177" viewBox="0 0 474 177" fill="none" xmlns="http://www.w3.org/2000/svg">
<rect x="5.5" width="26" height="23" rx="5" fill="white" fill-opacity="0.2"/>
<path d="M1 12V22.5C1.16667 24.6667 2.6 29 7 29C11.4 29 23.8333 29 29.5 29C31.8333 28.8333 36.5 27.1 36.5 21.5C36.5 15.9 36.5 12.8333 36.5 12" stroke="white" stroke-opacity="0.2" stroke-width="2" stroke-linejoin="round"/>
<rect x="54" width="26" height="23" rx="5" fill="white" fill-opacity="0.2"/>
<path d="M49.5 12V22.5C49.6667 24.6667 51.1 29 55.5 29C59.9 29 72.3333 29 78 29C80.3333 28.8333 85 27.1 85 21.5C85 15.9 85 12.8333 85 12" stroke="white" stroke-opacity="0.2" stroke-width="2" stroke-linejoin="round"/>
<rect x="102.5" width="26" height="23" rx="5" fill="white" fill-opacity="0.2"/>
<path d="M98 12V22.5C98.1667 24.6667 99.6 29 104 29C108.4 29 120.833 29 126.5 29C128.833 28.8333 133.5 27.1 133.5 21.5C133.5 15.9 133.5 12.8333 133.5 12" stroke="white" stroke-opacity="0.2" stroke-width="2" stroke-linejoin="round"/>
<rect x="151" width="26" height="23" rx="5" fill="white" fill-opacity="0.2"/>
<path d="M146.5 12V22.5C146.667 24.6667 148.1 29 152.5 29C156.9 29 169.333 29 175 29C177.333 28.8333 182 27.1 182 21.5C182 15.9 182 12.8333 182 12" stroke="white" stroke-opacity="0.2" stroke-width="2" stroke-linejoin="round"/>
<rect x="199.5" width="26" height="23" rx="5" fill="white" fill-opacity="0.2"/>
<path d="M195 12V22.5C195.167 24.6667 196.6 29 201 29C205.4 29 217.833 29 223.5 29C225.833 28.8333 230.5 27.1 230.5 21.5C230.5 15.9 230.5 12.8333 230.5 12" stroke="white" stroke-opacity="0.2" stroke-width="2" stroke-linejoin="round"/>
<rect x="248" width="26" height="23" rx="5" fill="white" fill-opacity="0.2"/>
<path d="M243.5 12V22.5C243.667 24.6667 245.1 29 249.5 29C253.9 29 266.333 29 272 29C274.333 28.8333 279 27.1 279 21.5C279 15.9 279 12.8333 279 12" stroke="white" stroke-opacity="0.2" stroke-width="2" stroke-linejoin="round"/>
<rect x="296.5" width="26" height="23" rx="5" fill="white" fill-opacity="0.2"/>
<path d="M292 12V22.5C292.167 24.6667 293.6 29 298 29C302.4 29 314.833 29 320.5 29C322.833 28.8333 327.5 27.1 327.5 21.5C327.5 15.9 327.5 12.8333 327.5 12" stroke="white" stroke-opacity="0.2" stroke-width="2" stroke-linejoin="round"/>
<rect x="345" width="26" height="23" rx="5" fill="white" fill-opacity="0.2"/>
<path d="M340.5 12V22.5C340.667 24.6667 342.1 29 346.5 29C350.9 29 363.333 29 369 29C371.333 28.8333 376 27.1 376 21.5C376 15.9 376 12.8333 376 12" stroke="white" stroke-opacity="0.2" stroke-width="2" stroke-linejoin="round"/>
<rect x="393.5" width="26" height="23" rx="5" fill="white" fill-opacity="0.2"/>
<path d="M389 12V22.5C389.167 24.6667 390.6 29 395 29C399.4 29 411.833 29 417.5 29C419.833 28.8333 424.5 27.1 424.5 21.5C424.5 15.9 424.5 12.8333 424.5 12" stroke="white" stroke-opacity="0.2" stroke-width="2" stroke-linejoin="round"/>
<rect x="442" width="26" height="23" rx="5" fill="white" fill-opacity="0.2"/>
<path d="M437.5 12V22.5C437.667 24.6667 439.1 29 443.5 29C447.9 29 460.333 29 466 29C468.333 28.8333 473 27.1 473 21.5C473 15.9 473 12.8333 473 12" stroke="white" stroke-opacity="0.2" stroke-width="2" stroke-linejoin="round"/>
<rect x="5.5" y="49" width="26" height="23" rx="5" fill="white" fill-opacity="0.2"/>
<path d="M1 61V71.5C1.16667 73.6667 2.6 78 7 78C11.4 78 23.8333 78 29.5 78C31.8333 77.8333 36.5 76.1 36.5 70.5C36.5 64.9 36.5 61.8333 36.5 61" stroke="white" stroke-opacity="0.2" stroke-width="2" stroke-linejoin="round"/>
<rect x="54" y="49" width="26" height="23" rx="5" fill="#FE8E05"/>
<path d="M49.5 61V71.5C49.6667 73.6667 51.1 78 55.5 78C59.9 78 72.3333 78 78 78C80.3333 77.8333 85 76.1 85 70.5C85 64.9 85 61.8333 85 61" stroke="#FE8E05" stroke-width="2" stroke-linejoin="round"/>
<rect x="102.5" y="49" width="26" height="23" rx="5" fill="#FE8E05"/>
<path d="M98 61V71.5C98.1667 73.6667 99.6 78 104 78C108.4 78 120.833 78 126.5 78C128.833 77.8333 133.5 76.1 133.5 70.5C133.5 64.9 133.5 61.8333 133.5 61" stroke="#FE8E05" stroke-width="2" stroke-linejoin="round"/>
<rect x="151" y="49" width="26" height="23" rx="5" fill="white" fill-opacity="0.2"/>
<path d="M146.5 61V71.5C146.667 73.6667 148.1 78 152.5 78C156.9 78 169.333 78 175 78C177.333 77.8333 182 76.1 182 70.5C182 64.9 182 61.8333 182 61" stroke="white" stroke-opacity="0.2" stroke-width="2" stroke-linejoin="round"/>
<rect x="199.5" y="49" width="26" height="23" rx="5" fill="white" fill-opacity="0.2"/>
<path d="M195 61V71.5C195.167 73.6667 196.6 78 201 78C205.4 78 217.833 78 223.5 78C225.833 77.8333 230.5 76.1 230.5 70.5C230.5 64.9 230.5 61.8333 230.5 61" stroke="white" stroke-opacity="0.2" stroke-width="2" stroke-linejoin="round"/>
<rect x="248" y="49" width="26" height="23" rx="5" fill="white" fill-opacity="0.2"/>
<path d="M243.5 61V71.5C243.667 73.6667 245.1 78 249.5 78C253.9 78 266.333 78 272 78C274.333 77.8333 279 76.1 279 70.5C279 64.9 279 61.8333 279 61" stroke="white" stroke-opacity="0.2" stroke-width="2" stroke-linejoin="round"/>
<rect x="296.5" y="49" width="26" height="23" rx="5" fill="white" fill-opacity="0.2"/>
<path d="M292 61V71.5C292.167 73.6667 293.6 78 298 78C302.4 78 314.833 78 320.5 78C322.833 77.8333 327.5 76.1 327.5 70.5C327.5 64.9 327.5 61.8333 327.5 61" stroke="white" stroke-opacity="0.2" stroke-width="2" stroke-linejoin="round"/>
<rect x="345" y="49" width="26" height="23" rx="5" fill="white" fill-opacity="0.2"/>
<path d="M340.5 61V71.5C340.667 73.6667 342.1 78 346.5 78C350.9 78 363.333 78 369 78C371.333 77.8333 376 76.1 376 70.5C376 64.9 376 61.8333 376 61" stroke="white" stroke-opacity="0.2" stroke-width="2" stroke-linejoin="round"/>
<rect x="393.5" y="49" width="26" height="23" rx="5" fill="white" fill-opacity="0.2"/>
<path d="M389 61V71.5C389.167 73.6667 390.6 78 395 78C399.4 78 411.833 78 417.5 78C419.833 77.8333 424.5 76.1 424.5 70.5C424.5 64.9 424.5 61.8333 424.5 61" stroke="white" stroke-opacity="0.2" stroke-width="2" stroke-linejoin="round"/>
<rect x="442" y="49" width="26" height="23" rx="5" fill="white" fill-opacity="0.2"/>
<path d="M437.5 61V71.5C437.667 73.6667 439.1 78 443.5 78C447.9 78 460.333 78 466 78C468.333 77.8333 473 76.1 473 70.5C473 64.9 473 61.8333 473 61" stroke="white" stroke-opacity="0.2" stroke-width="2" stroke-linejoin="round"/>
<rect x="5.5" y="98" width="26" height="23" rx="5" fill="white" fill-opacity="0.2"/>
<path d="M1 110V120.5C1.16667 122.667 2.6 127 7 127C11.4 127 23.8333 127 29.5 127C31.8333 126.833 36.5 125.1 36.5 119.5C36.5 113.9 36.5 110.833 36.5 110" stroke="white" stroke-opacity="0.2" stroke-width="2" stroke-linejoin="round"/>
<rect x="54" y="98" width="26" height="23" rx="5" fill="white" fill-opacity="0.2"/>
<path d="M49.5 110V120.5C49.6667 122.667 51.1 127 55.5 127C59.9 127 72.3333 127 78 127C80.3333 126.833 85 125.1 85 119.5C85 113.9 85 110.833 85 110" stroke="white" stroke-opacity="0.2" stroke-width="2" stroke-linejoin="round"/>
<rect x="102.5" y="98" width="26" height="23" rx="5" fill="white" fill-opacity="0.2"/>
<path d="M98 110V120.5C98.1667 122.667 99.6 127 104 127C108.4 127 120.833 127 126.5 127C128.833 126.833 133.5 125.1 133.5 119.5C133.5 113.9 133.5 110.833 133.5 110" stroke="white" stroke-opacity="0.2" stroke-width="2" stroke-linejoin="round"/>
<rect x="151" y="98" width="26" height="23" rx="5" fill="white" fill-opacity="0.2"/>
<path d="M146.5 110V120.5C146.667 122.667 148.1 127 152.5 127C156.9 127 169.333 127 175 127C177.333 126.833 182 125.1 182 119.5C182 113.9 182 110.833 182 110" stroke="white" stroke-opacity="0.2" stroke-width="2" stroke-linejoin="round"/>
<rect x="199.5" y="98" width="26" height="23" rx="5" fill="white" fill-opacity="0.2"/>
<path d="M195 110V120.5C195.167 122.667 196.6 127 201 127C205.4 127 217.833 127 223.5 127C225.833 126.833 230.5 125.1 230.5 119.5C230.5 113.9 230.5 110.833 230.5 110" stroke="white" stroke-opacity="0.2" stroke-width="2" stroke-linejoin="round"/>
<rect x="248" y="98" width="26" height="23" rx="5" fill="white" fill-opacity="0.2"/>
<path d="M243.5 110V120.5C243.667 122.667 245.1 127 249.5 127C253.9 127 266.333 127 272 127C274.333 126.833 279 125.1 279 119.5C279 113.9 279 110.833 279 110" stroke="white" stroke-opacity="0.2" stroke-width="2" stroke-linejoin="round"/>
<rect x="296.5" y="98" width="26" height="23" rx="5" fill="white" fill-opacity="0.2"/>
<path d="M292 110V120.5C292.167 122.667 293.6 127 298 127C302.4 127 314.833 127 320.5 127C322.833 126.833 327.5 125.1 327.5 119.5C327.5 113.9 327.5 110.833 327.5 110" stroke="white" stroke-opacity="0.2" stroke-width="2" stroke-linejoin="round"/>
<rect x="345" y="98" width="26" height="23" rx="5" fill="white" fill-opacity="0.2"/>
<path d="M340.5 110V120.5C340.667 122.667 342.1 127 346.5 127C350.9 127 363.333 127 369 127C371.333 126.833 376 125.1 376 119.5C376 113.9 376 110.833 376 110" stroke="white" stroke-opacity="0.2" stroke-width="2" stroke-linejoin="round"/>
<rect x="393.5" y="98" width="26" height="23" rx="5" fill="white" fill-opacity="0.2"/>
<path d="M389 110V120.5C389.167 122.667 390.6 127 395 127C399.4 127 411.833 127 417.5 127C419.833 126.833 424.5 125.1 424.5 119.5C424.5 113.9 424.5 110.833 424.5 110" stroke="white" stroke-opacity="0.2" stroke-width="2" stroke-linejoin="round"/>
<rect x="442" y="98" width="26" height="23" rx="5" fill="white" fill-opacity="0.2"/>
<path d="M437.5 110V120.5C437.667 122.667 439.1 127 443.5 127C447.9 127 460.333 127 466 127C468.333 126.833 473 125.1 473 119.5C473 113.9 473 110.833 473 110" stroke="white" stroke-opacity="0.2" stroke-width="2" stroke-linejoin="round"/>
<rect x="5.5" y="147" width="26" height="23" rx="5" fill="white" fill-opacity="0.2"/>
<path d="M1 159V169.5C1.16667 171.667 2.6 176 7 176C11.4 176 23.8333 176 29.5 176C31.8333 175.833 36.5 174.1 36.5 168.5C36.5 162.9 36.5 159.833 36.5 159" stroke="white" stroke-opacity="0.2" stroke-width="2" stroke-linejoin="round"/>
<rect x="54" y="147" width="26" height="23" rx="5" fill="white" fill-opacity="0.2"/>
<path d="M49.5 159V169.5C49.6667 171.667 51.1 176 55.5 176C59.9 176 72.3333 176 78 176C80.3333 175.833 85 174.1 85 168.5C85 162.9 85 159.833 85 159" stroke="white" stroke-opacity="0.2" stroke-width="2" stroke-linejoin="round"/>
<rect x="102.5" y="147" width="26" height="23" rx="5" fill="white" fill-opacity="0.2"/>
<path d="M98 159V169.5C98.1667 171.667 99.6 176 104 176C108.4 176 120.833 176 126.5 176C128.833 175.833 133.5 174.1 133.5 168.5C133.5 162.9 133.5 159.833 133.5 159" stroke="white" stroke-opacity="0.2" stroke-width="2" stroke-linejoin="round"/>
<rect x="151" y="147" width="26" height="23" rx="5" fill="white" fill-opacity="0.2"/>
<path d="M146.5 159V169.5C146.667 171.667 148.1 176 152.5 176C156.9 176 169.333 176 175 176C177.333 175.833 182 174.1 182 168.5C182 162.9 182 159.833 182 159" stroke="white" stroke-opacity="0.2" stroke-width="2" stroke-linejoin="round"/>
<rect x="199.5" y="147" width="26" height="23" rx="5" fill="white" fill-opacity="0.2"/>
<path d="M195 159V169.5C195.167 171.667 196.6 176 201 176C205.4 176 217.833 176 223.5 176C225.833 175.833 230.5 174.1 230.5 168.5C230.5 162.9 230.5 159.833 230.5 159" stroke="white" stroke-opacity="0.2" stroke-width="2" stroke-linejoin="round"/>
<rect x="248" y="147" width="26" height="23" rx="5" fill="white" fill-opacity="0.2"/>
<path d="M243.5 159V169.5C243.667 171.667 245.1 176 249.5 176C253.9 176 266.333 176 272 176C274.333 175.833 279 174.1 279 168.5C279 162.9 279 159.833 279 159" stroke="white" stroke-opacity="0.2" stroke-width="2" stroke-linejoin="round"/>
<rect x="296.5" y="147" width="26" height="23" rx="5" fill="white" fill-opacity="0.2"/>
<path d="M292 159V169.5C292.167 171.667 293.6 176 298 176C302.4 176 314.833 176 320.5 176C322.833 175.833 327.5 174.1 327.5 168.5C327.5 162.9 327.5 159.833 327.5 159" stroke="white" stroke-opacity="0.2" stroke-width="2" stroke-linejoin="round"/>
<rect x="345" y="147" width="26" height="23" rx="5" fill="white" fill-opacity="0.2"/>
<path d="M340.5 159V169.5C340.667 171.667 342.1 176 346.5 176C350.9 176 363.333 176 369 176C371.333 175.833 376 174.1 376 168.5C376 162.9 376 159.833 376 159" stroke="white" stroke-opacity="0.2" stroke-width="2" stroke-linejoin="round"/>
<rect x="393.5" y="147" width="26" height="23" rx="5" fill="white" fill-opacity="0.2"/>
<path d="M389 159V169.5C389.167 171.667 390.6 176 395 176C399.4 176 411.833 176 417.5 176C419.833 175.833 424.5 174.1 424.5 168.5C424.5 162.9 424.5 159.833 424.5 159" stroke="white" stroke-opacity="0.2" stroke-width="2" stroke-linejoin="round"/>
<rect x="442" y="147" width="26" height="23" rx="5" fill="white" fill-opacity="0.2"/>
<path d="M437.5 159V169.5C437.667 171.667 439.1 176 443.5 176C447.9 176 460.333 176 466 176C468.333 175.833 473 174.1 473 168.5C473 162.9 473 159.833 473 159" stroke="white" stroke-opacity="0.2" stroke-width="2" stroke-linejoin="round"/>
</svg>
